<mxfile host="app.diagrams.net" agent="Mozilla/5.0 (Windows NT 10.0; Win64; x64) AppleWebKit/537.36 (KHTML, like Gecko) Chrome/131.0.0.0 Safari/537.36" version="24.8.6">
  <diagram id="C5RBs43oDa-KdzZeNtuy" name="Page-1">
    <mxGraphModel dx="1194" dy="716" grid="1" gridSize="10" guides="1" tooltips="1" connect="1" arrows="1" fold="1" page="1" pageScale="1" pageWidth="827" pageHeight="1169" math="0" shadow="0">
      <root>
        <mxCell id="WIyWlLk6GJQsqaUBKTNV-0" />
        <mxCell id="WIyWlLk6GJQsqaUBKTNV-1" parent="WIyWlLk6GJQsqaUBKTNV-0" />
        <mxCell id="3YqaL3FhDLGc0NVvFyrv-4" value="" style="edgeStyle=orthogonalEdgeStyle;rounded=0;orthogonalLoop=1;jettySize=auto;html=1;" edge="1" parent="WIyWlLk6GJQsqaUBKTNV-1" source="3YqaL3FhDLGc0NVvFyrv-0" target="3YqaL3FhDLGc0NVvFyrv-3">
          <mxGeometry relative="1" as="geometry" />
        </mxCell>
        <mxCell id="3YqaL3FhDLGc0NVvFyrv-0" value="&lt;font style=&quot;font-size: 18px;&quot;&gt;Start&lt;/font&gt;" style="ellipse;whiteSpace=wrap;html=1;aspect=fixed;" vertex="1" parent="WIyWlLk6GJQsqaUBKTNV-1">
          <mxGeometry x="269" width="80" height="80" as="geometry" />
        </mxCell>
        <mxCell id="3YqaL3FhDLGc0NVvFyrv-1" value="&lt;font style=&quot;font-size: 18px;&quot;&gt;Finish&lt;/font&gt;" style="ellipse;whiteSpace=wrap;html=1;aspect=fixed;" vertex="1" parent="WIyWlLk6GJQsqaUBKTNV-1">
          <mxGeometry x="689" y="1075" width="80" height="80" as="geometry" />
        </mxCell>
        <mxCell id="3YqaL3FhDLGc0NVvFyrv-33" style="edgeStyle=orthogonalEdgeStyle;rounded=0;orthogonalLoop=1;jettySize=auto;html=1;entryX=0.5;entryY=0;entryDx=0;entryDy=0;fontFamily=Helvetica;fontSize=12;fontColor=default;resizable=1;" edge="1" parent="WIyWlLk6GJQsqaUBKTNV-1" source="3YqaL3FhDLGc0NVvFyrv-3" target="3YqaL3FhDLGc0NVvFyrv-11">
          <mxGeometry relative="1" as="geometry" />
        </mxCell>
        <mxCell id="3YqaL3FhDLGc0NVvFyrv-3" value="&lt;div&gt;&lt;font style=&quot;font-size: 18px;&quot;&gt;string[] array, newArray;&lt;/font&gt;&lt;/div&gt;&lt;div&gt;&lt;font size=&quot;3&quot;&gt;array = new string[] { &quot;Russia&quot;, &quot;Denmark&quot;, &quot;Kazan&quot; };&lt;/font&gt;&lt;/div&gt;&lt;div&gt;&lt;span style=&quot;font-size: 18px;&quot;&gt;int lenNewArray = 0;&lt;/span&gt;&lt;/div&gt;" style="whiteSpace=wrap;html=1;" vertex="1" parent="WIyWlLk6GJQsqaUBKTNV-1">
          <mxGeometry x="94" y="110" width="430" height="70" as="geometry" />
        </mxCell>
        <mxCell id="3YqaL3FhDLGc0NVvFyrv-20" value="" style="edgeStyle=orthogonalEdgeStyle;rounded=0;orthogonalLoop=1;jettySize=auto;html=1;fontFamily=Helvetica;fontSize=12;fontColor=default;resizable=1;" edge="1" parent="WIyWlLk6GJQsqaUBKTNV-1" source="3YqaL3FhDLGc0NVvFyrv-11" target="3YqaL3FhDLGc0NVvFyrv-19">
          <mxGeometry relative="1" as="geometry" />
        </mxCell>
        <object label="&lt;div style=&quot;&quot;&gt;int i = 0; i &amp;lt;= array.Length - 1; i++&lt;/div&gt;" id="3YqaL3FhDLGc0NVvFyrv-11">
          <mxCell style="verticalLabelPosition=middle;verticalAlign=middle;html=1;shape=hexagon;perimeter=hexagonPerimeter2;arcSize=6;size=0.27;movable=1;resizable=1;rotatable=1;deletable=1;editable=1;locked=0;connectable=1;fillColor=none;fontSize=18;labelPosition=center;align=center;" vertex="1" parent="WIyWlLk6GJQsqaUBKTNV-1">
            <mxGeometry x="139" y="240" width="340" height="130" as="geometry" />
          </mxCell>
        </object>
        <mxCell id="3YqaL3FhDLGc0NVvFyrv-15" value="&lt;font style=&quot;font-size: 18px;&quot;&gt;Да&lt;/font&gt;" style="text;html=1;align=center;verticalAlign=middle;resizable=1;points=[];autosize=1;strokeColor=none;fillColor=none;fontFamily=Helvetica;fontSize=12;fontColor=default;" vertex="1" parent="WIyWlLk6GJQsqaUBKTNV-1">
          <mxGeometry x="303" y="380" width="50" height="40" as="geometry" />
        </mxCell>
        <mxCell id="3YqaL3FhDLGc0NVvFyrv-36" style="edgeStyle=orthogonalEdgeStyle;rounded=0;orthogonalLoop=1;jettySize=auto;html=1;fontFamily=Helvetica;fontSize=12;fontColor=default;resizable=1;" edge="1" parent="WIyWlLk6GJQsqaUBKTNV-1" source="3YqaL3FhDLGc0NVvFyrv-16">
          <mxGeometry relative="1" as="geometry">
            <mxPoint x="69" y="480" as="targetPoint" />
          </mxGeometry>
        </mxCell>
        <mxCell id="3YqaL3FhDLGc0NVvFyrv-16" value="lenNewArray++;" style="whiteSpace=wrap;html=1;fontSize=18;fillColor=none;arcSize=6;resizable=1;" vertex="1" parent="WIyWlLk6GJQsqaUBKTNV-1">
          <mxGeometry x="204" y="570" width="210" height="80" as="geometry" />
        </mxCell>
        <mxCell id="3YqaL3FhDLGc0NVvFyrv-18" value="&lt;font style=&quot;font-size: 18px;&quot;&gt;Да&lt;/font&gt;" style="text;html=1;align=center;verticalAlign=middle;resizable=1;points=[];autosize=1;strokeColor=none;fillColor=none;fontFamily=Helvetica;fontSize=12;fontColor=default;" vertex="1" parent="WIyWlLk6GJQsqaUBKTNV-1">
          <mxGeometry x="303" y="520" width="50" height="40" as="geometry" />
        </mxCell>
        <mxCell id="3YqaL3FhDLGc0NVvFyrv-21" value="" style="edgeStyle=orthogonalEdgeStyle;rounded=0;orthogonalLoop=1;jettySize=auto;html=1;fontFamily=Helvetica;fontSize=12;fontColor=default;resizable=1;" edge="1" parent="WIyWlLk6GJQsqaUBKTNV-1" source="3YqaL3FhDLGc0NVvFyrv-19" target="3YqaL3FhDLGc0NVvFyrv-16">
          <mxGeometry relative="1" as="geometry" />
        </mxCell>
        <mxCell id="3YqaL3FhDLGc0NVvFyrv-34" style="edgeStyle=orthogonalEdgeStyle;rounded=0;orthogonalLoop=1;jettySize=auto;html=1;entryX=0;entryY=0.5;entryDx=0;entryDy=0;fontFamily=Helvetica;fontSize=12;fontColor=default;resizable=1;" edge="1" parent="WIyWlLk6GJQsqaUBKTNV-1" source="3YqaL3FhDLGc0NVvFyrv-19" target="3YqaL3FhDLGc0NVvFyrv-11">
          <mxGeometry relative="1" as="geometry">
            <Array as="points">
              <mxPoint x="69" y="473" />
              <mxPoint x="69" y="305" />
            </Array>
          </mxGeometry>
        </mxCell>
        <mxCell id="3YqaL3FhDLGc0NVvFyrv-19" value="&lt;span style=&quot;font-size: 18px; text-wrap-mode: nowrap;&quot;&gt;array[i].Length &amp;lt;= 3&lt;/span&gt;" style="rhombus;whiteSpace=wrap;html=1;strokeColor=default;align=center;verticalAlign=middle;arcSize=6;fontFamily=Helvetica;fontSize=12;fontColor=default;resizable=1;fillColor=none;" vertex="1" parent="WIyWlLk6GJQsqaUBKTNV-1">
          <mxGeometry x="174" y="425" width="270" height="95" as="geometry" />
        </mxCell>
        <mxCell id="3YqaL3FhDLGc0NVvFyrv-24" value="" style="edgeStyle=orthogonalEdgeStyle;rounded=0;orthogonalLoop=1;jettySize=auto;html=1;fontFamily=Helvetica;fontSize=12;fontColor=default;resizable=1;" edge="1" parent="WIyWlLk6GJQsqaUBKTNV-1" source="3YqaL3FhDLGc0NVvFyrv-22" target="3YqaL3FhDLGc0NVvFyrv-23">
          <mxGeometry relative="1" as="geometry" />
        </mxCell>
        <mxCell id="3YqaL3FhDLGc0NVvFyrv-22" value="&lt;font style=&quot;font-size: 18px;&quot;&gt;string[] newArray = new string[lenNewArray];&lt;/font&gt;&lt;div&gt;&lt;font style=&quot;&quot;&gt;&lt;span style=&quot;font-size: 18px;&quot;&gt;int idx = 0;&lt;/span&gt;&lt;/font&gt;&lt;/div&gt;" style="whiteSpace=wrap;html=1;strokeColor=default;align=center;verticalAlign=middle;arcSize=6;fontFamily=Helvetica;fontSize=12;fontColor=default;resizable=1;fillColor=none;" vertex="1" parent="WIyWlLk6GJQsqaUBKTNV-1">
          <mxGeometry x="108" y="820" width="411" height="80" as="geometry" />
        </mxCell>
        <mxCell id="3YqaL3FhDLGc0NVvFyrv-26" value="" style="edgeStyle=orthogonalEdgeStyle;rounded=0;orthogonalLoop=1;jettySize=auto;html=1;fontFamily=Helvetica;fontSize=12;fontColor=default;resizable=1;" edge="1" parent="WIyWlLk6GJQsqaUBKTNV-1" source="3YqaL3FhDLGc0NVvFyrv-23" target="3YqaL3FhDLGc0NVvFyrv-25">
          <mxGeometry relative="1" as="geometry" />
        </mxCell>
        <mxCell id="3YqaL3FhDLGc0NVvFyrv-23" value="&lt;font style=&quot;font-size: 18px;&quot;&gt;Console.Write(&quot;[&quot;);&lt;/font&gt;" style="whiteSpace=wrap;html=1;fillColor=none;arcSize=6;resizable=1;" vertex="1" parent="WIyWlLk6GJQsqaUBKTNV-1">
          <mxGeometry x="210.75" y="960" width="205.5" height="40" as="geometry" />
        </mxCell>
        <mxCell id="3YqaL3FhDLGc0NVvFyrv-28" value="" style="edgeStyle=orthogonalEdgeStyle;rounded=0;orthogonalLoop=1;jettySize=auto;html=1;fontFamily=Helvetica;fontSize=12;fontColor=default;resizable=1;" edge="1" parent="WIyWlLk6GJQsqaUBKTNV-1" source="3YqaL3FhDLGc0NVvFyrv-25" target="3YqaL3FhDLGc0NVvFyrv-27">
          <mxGeometry relative="1" as="geometry" />
        </mxCell>
        <mxCell id="3YqaL3FhDLGc0NVvFyrv-51" value="" style="edgeStyle=orthogonalEdgeStyle;rounded=0;orthogonalLoop=1;jettySize=auto;html=1;fontFamily=Helvetica;fontSize=12;fontColor=default;resizable=1;" edge="1" parent="WIyWlLk6GJQsqaUBKTNV-1" source="3YqaL3FhDLGc0NVvFyrv-25" target="3YqaL3FhDLGc0NVvFyrv-50">
          <mxGeometry relative="1" as="geometry" />
        </mxCell>
        <object label="&lt;div style=&quot;&quot;&gt;int i = 0; i &amp;lt;= array.Length - 1; i++&lt;/div&gt;" id="3YqaL3FhDLGc0NVvFyrv-25">
          <mxCell style="verticalLabelPosition=middle;verticalAlign=middle;html=1;shape=hexagon;perimeter=hexagonPerimeter2;arcSize=6;size=0.27;movable=1;resizable=1;rotatable=1;deletable=1;editable=1;locked=0;connectable=1;fillColor=none;fontSize=18;labelPosition=center;align=center;" vertex="1" parent="WIyWlLk6GJQsqaUBKTNV-1">
            <mxGeometry x="143.5" y="1050" width="340" height="130" as="geometry" />
          </mxCell>
        </object>
        <mxCell id="3YqaL3FhDLGc0NVvFyrv-31" value="" style="edgeStyle=orthogonalEdgeStyle;rounded=0;orthogonalLoop=1;jettySize=auto;html=1;fontFamily=Helvetica;fontSize=12;fontColor=default;resizable=1;" edge="1" parent="WIyWlLk6GJQsqaUBKTNV-1" source="3YqaL3FhDLGc0NVvFyrv-27" target="3YqaL3FhDLGc0NVvFyrv-30">
          <mxGeometry relative="1" as="geometry" />
        </mxCell>
        <mxCell id="3YqaL3FhDLGc0NVvFyrv-45" style="edgeStyle=orthogonalEdgeStyle;rounded=0;orthogonalLoop=1;jettySize=auto;html=1;entryX=0;entryY=0.5;entryDx=0;entryDy=0;fontFamily=Helvetica;fontSize=12;fontColor=default;resizable=1;" edge="1" parent="WIyWlLk6GJQsqaUBKTNV-1" source="3YqaL3FhDLGc0NVvFyrv-27" target="3YqaL3FhDLGc0NVvFyrv-25">
          <mxGeometry relative="1" as="geometry">
            <Array as="points">
              <mxPoint x="59" y="1280" />
              <mxPoint x="59" y="1115" />
            </Array>
          </mxGeometry>
        </mxCell>
        <mxCell id="3YqaL3FhDLGc0NVvFyrv-27" value="array[i].Length &amp;lt;= 3" style="rhombus;whiteSpace=wrap;html=1;fontSize=18;fillColor=none;arcSize=6;resizable=1;" vertex="1" parent="WIyWlLk6GJQsqaUBKTNV-1">
          <mxGeometry x="171.25" y="1240" width="284.5" height="80" as="geometry" />
        </mxCell>
        <mxCell id="3YqaL3FhDLGc0NVvFyrv-29" value="&lt;font style=&quot;font-size: 18px;&quot;&gt;Да&lt;/font&gt;" style="text;html=1;align=center;verticalAlign=middle;resizable=1;points=[];autosize=1;strokeColor=none;fillColor=none;fontFamily=Helvetica;fontSize=12;fontColor=default;" vertex="1" parent="WIyWlLk6GJQsqaUBKTNV-1">
          <mxGeometry x="313" y="1190" width="46" height="50" as="geometry" />
        </mxCell>
        <mxCell id="3YqaL3FhDLGc0NVvFyrv-48" value="" style="edgeStyle=orthogonalEdgeStyle;rounded=0;orthogonalLoop=1;jettySize=auto;html=1;fontFamily=Helvetica;fontSize=12;fontColor=default;resizable=1;" edge="1" parent="WIyWlLk6GJQsqaUBKTNV-1" source="3YqaL3FhDLGc0NVvFyrv-30" target="3YqaL3FhDLGc0NVvFyrv-47">
          <mxGeometry relative="1" as="geometry" />
        </mxCell>
        <mxCell id="3YqaL3FhDLGc0NVvFyrv-30" value="&lt;div&gt;&amp;nbsp;newArray[idx] = array[i];&lt;/div&gt;&lt;div&gt;&amp;nbsp; &amp;nbsp; &amp;nbsp; &amp;nbsp; Console.Write($&quot;{newArray[idx]}, &quot;);&lt;/div&gt;" style="whiteSpace=wrap;html=1;fontSize=18;fillColor=none;arcSize=6;resizable=1;" vertex="1" parent="WIyWlLk6GJQsqaUBKTNV-1">
          <mxGeometry x="130.75" y="1380" width="365.5" height="70" as="geometry" />
        </mxCell>
        <mxCell id="3YqaL3FhDLGc0NVvFyrv-32" value="&lt;font style=&quot;font-size: 18px;&quot;&gt;Да&lt;/font&gt;" style="text;html=1;align=center;verticalAlign=middle;resizable=1;points=[];autosize=1;strokeColor=none;fillColor=none;fontFamily=Helvetica;fontSize=12;fontColor=default;" vertex="1" parent="WIyWlLk6GJQsqaUBKTNV-1">
          <mxGeometry x="319" y="1320" width="46" height="50" as="geometry" />
        </mxCell>
        <mxCell id="3YqaL3FhDLGc0NVvFyrv-35" value="&lt;font style=&quot;font-size: 18px;&quot;&gt;Нет&lt;/font&gt;" style="text;html=1;align=center;verticalAlign=middle;resizable=1;points=[];autosize=1;strokeColor=none;fillColor=none;fontFamily=Helvetica;fontSize=12;fontColor=default;" vertex="1" parent="WIyWlLk6GJQsqaUBKTNV-1">
          <mxGeometry x="99" y="440" width="50" height="40" as="geometry" />
        </mxCell>
        <mxCell id="3YqaL3FhDLGc0NVvFyrv-40" style="edgeStyle=orthogonalEdgeStyle;rounded=0;orthogonalLoop=1;jettySize=auto;html=1;entryX=0.518;entryY=0;entryDx=0;entryDy=0;entryPerimeter=0;fontFamily=Helvetica;fontSize=12;fontColor=default;resizable=1;exitX=1;exitY=0.5;exitDx=0;exitDy=0;" edge="1" parent="WIyWlLk6GJQsqaUBKTNV-1" source="3YqaL3FhDLGc0NVvFyrv-11" target="3YqaL3FhDLGc0NVvFyrv-22">
          <mxGeometry relative="1" as="geometry">
            <Array as="points">
              <mxPoint x="599" y="305" />
              <mxPoint x="599" y="720" />
              <mxPoint x="321" y="720" />
            </Array>
          </mxGeometry>
        </mxCell>
        <mxCell id="3YqaL3FhDLGc0NVvFyrv-42" value="" style="edgeLabel;html=1;align=center;verticalAlign=middle;resizable=0;points=[];strokeColor=default;arcSize=6;fontFamily=Helvetica;fontSize=12;fontColor=default;fillColor=none;" vertex="1" connectable="0" parent="3YqaL3FhDLGc0NVvFyrv-40">
          <mxGeometry x="0.5345" relative="1" as="geometry">
            <mxPoint as="offset" />
          </mxGeometry>
        </mxCell>
        <mxCell id="3YqaL3FhDLGc0NVvFyrv-43" value="&lt;font style=&quot;font-size: 18px;&quot;&gt;Нет&lt;/font&gt;" style="text;html=1;align=center;verticalAlign=middle;resizable=1;points=[];autosize=1;strokeColor=none;fillColor=none;fontFamily=Helvetica;fontSize=12;fontColor=default;" vertex="1" parent="WIyWlLk6GJQsqaUBKTNV-1">
          <mxGeometry x="509" y="260" width="50" height="40" as="geometry" />
        </mxCell>
        <mxCell id="3YqaL3FhDLGc0NVvFyrv-46" value="&lt;font style=&quot;font-size: 18px;&quot;&gt;Нет&lt;/font&gt;" style="text;html=1;align=center;verticalAlign=middle;resizable=1;points=[];autosize=1;strokeColor=none;fillColor=none;fontFamily=Helvetica;fontSize=12;fontColor=default;" vertex="1" parent="WIyWlLk6GJQsqaUBKTNV-1">
          <mxGeometry x="99" y="1240" width="50" height="40" as="geometry" />
        </mxCell>
        <mxCell id="3YqaL3FhDLGc0NVvFyrv-49" style="edgeStyle=orthogonalEdgeStyle;rounded=0;orthogonalLoop=1;jettySize=auto;html=1;fontFamily=Helvetica;fontSize=12;fontColor=default;resizable=1;" edge="1" parent="WIyWlLk6GJQsqaUBKTNV-1" source="3YqaL3FhDLGc0NVvFyrv-47">
          <mxGeometry relative="1" as="geometry">
            <mxPoint x="59" y="1280" as="targetPoint" />
          </mxGeometry>
        </mxCell>
        <mxCell id="3YqaL3FhDLGc0NVvFyrv-47" value="idx++;" style="whiteSpace=wrap;html=1;fontSize=18;fillColor=none;arcSize=6;resizable=1;" vertex="1" parent="WIyWlLk6GJQsqaUBKTNV-1">
          <mxGeometry x="253.5" y="1500" width="120" height="60" as="geometry" />
        </mxCell>
        <mxCell id="3YqaL3FhDLGc0NVvFyrv-52" value="" style="edgeStyle=orthogonalEdgeStyle;rounded=0;orthogonalLoop=1;jettySize=auto;html=1;fontFamily=Helvetica;fontSize=12;fontColor=default;resizable=1;" edge="1" parent="WIyWlLk6GJQsqaUBKTNV-1" source="3YqaL3FhDLGc0NVvFyrv-50" target="3YqaL3FhDLGc0NVvFyrv-1">
          <mxGeometry relative="1" as="geometry" />
        </mxCell>
        <mxCell id="3YqaL3FhDLGc0NVvFyrv-50" value="Выведет [ ]" style="shape=document;whiteSpace=wrap;html=1;boundedLbl=1;fontSize=18;fillColor=none;arcSize=6;resizable=1;" vertex="1" parent="WIyWlLk6GJQsqaUBKTNV-1">
          <mxGeometry x="529" y="1075" width="120" height="80" as="geometry" />
        </mxCell>
      </root>
    </mxGraphModel>
  </diagram>
</mxfile>
